<svg xmlns="http://www.w3.org/2000/svg"><defs>
<clipPath id="clip0">
<rect width="30" height="30" fill="white"/>
</clipPath>

<clipPath id="clip0">
<rect width="30" height="30" fill="white"/>
</clipPath>
</defs><symbol id="icon-arrow" viewBox="0 0 30 30">
<path d="M30 15C30 11.0218 28.4196 7.20644 25.6066 4.3934C22.7936 1.58035 18.9782 0 15 0C11.0218 0 7.20644 1.58035 4.3934 4.3934C1.58035 7.20644 0 11.0218 0 15C0 18.9782 1.58035 22.7936 4.3934 25.6066C7.20644 28.4196 11.0218 30 15 30C18.9782 30 22.7936 28.4196 25.6066 25.6066C28.4196 22.7936 30 18.9782 30 15V15ZM1 15C1 13.1615 1.36212 11.341 2.06569 9.64243C2.76925 7.94387 3.80049 6.40053 5.10051 5.1005C6.40053 3.80048 7.94387 2.76925 9.64243 2.06569C11.341 1.36212 13.1615 1 15 1C16.8385 1 18.659 1.36212 20.3576 2.06569C22.0561 2.76925 23.5995 3.80048 24.8995 5.1005C26.1995 6.40053 27.2307 7.94387 27.9343 9.64243C28.6379 11.341 29 13.1615 29 15C29 18.713 27.525 22.274 24.8995 24.8995C22.274 27.525 18.713 29 15 29C11.287 29 7.72602 27.525 5.10051 24.8995C2.475 22.274 1 18.713 1 15Z" fill="black" fill-opacity="0.2"/>
<path d="M15.2788 19.5953L21.8826 12.9916C22.0294 12.8155 22.0294 12.5807 21.8826 12.4339C21.7359 12.2872 21.4717 12.2578 21.325 12.4339L14.9853 18.7442L8.67508 12.4339C8.52833 12.2578 8.26418 12.2578 8.11743 12.4339C8.02938 12.4926 8.00003 12.61 8.00003 12.6981C8.00003 12.7861 8.02938 12.9035 8.11743 12.9916L14.7212 19.5953C14.8679 19.7421 15.1321 19.7421 15.2788 19.5953Z" fill="black" fill-opacity="0.2"/>
<path d="M21.918 13.0269L21.9181 13.0271L21.921 13.0236C22.0816 12.8308 22.0858 12.5664 21.918 12.3986C21.7568 12.2374 21.4589 12.1975 21.2881 12.4001L14.9854 18.6735L8.71199 12.4001C8.54647 12.2036 8.2507 12.2024 8.08359 12.3965C7.97969 12.4701 7.95003 12.6056 7.95003 12.6981C7.95003 12.7956 7.98227 12.9271 8.08208 13.0269L14.6858 19.6307C14.8521 19.7969 15.1479 19.7969 15.3142 19.6307L21.918 13.0269Z" stroke="black" stroke-opacity="0.2" stroke-width="0.1"/>
</symbol><symbol id="icon-fb" viewBox="0 0 16 15">
<path d="M12.9343 0H2.21984C0.995922 0 0 0.985794 0 2.19727V12.8027C0 14.0142 0.995922 15 2.21984 15H6.68912V9.69727H4.91325V7.06055H6.68912V5.27344C6.68912 3.81947 7.88402 2.63672 9.35293 2.63672H12.0463V5.27344H9.35293V7.06055H12.0463L11.6024 9.69727H9.35293V15H12.9343C14.1582 15 15.1541 14.0142 15.1541 12.8027V2.19727C15.1541 0.985794 14.1582 0 12.9343 0Z" fill="#FFC000"/>
</symbol><symbol id="icon-inst" viewBox="0 0 16 15">
<path d="M13.1124 0H2.39794C1.17402 0 0.178101 0.985794 0.178101 2.19727V12.8027C0.178101 14.0142 1.17402 15 2.39794 15H13.1124C14.3363 15 15.3322 14.0142 15.3322 12.8027V2.19727C15.3322 0.985794 14.3363 0 13.1124 0ZM7.78475 11.4258C5.58145 11.4258 3.78904 9.6516 3.78904 7.4707C3.78904 5.2898 5.58145 3.51562 7.78475 3.51562C9.98806 3.51562 11.7805 5.2898 11.7805 7.4707C11.7805 9.6516 9.98806 11.4258 7.78475 11.4258ZM12.2244 4.39453C11.49 4.39453 10.8925 3.8031 10.8925 3.07617C10.8925 2.34924 11.49 1.75781 12.2244 1.75781C12.9588 1.75781 13.5563 2.34924 13.5563 3.07617C13.5563 3.8031 12.9588 4.39453 12.2244 4.39453Z" fill="#FFC000"/>
<path d="M12.2244 2.63672C11.9794 2.63672 11.7804 2.83367 11.7804 3.07617C11.7804 3.31867 11.9794 3.51562 12.2244 3.51562C12.4694 3.51562 12.6683 3.31867 12.6683 3.07617C12.6683 2.83367 12.4694 2.63672 12.2244 2.63672Z" fill="#FFC000"/>
<path d="M7.78478 4.39453C6.07134 4.39453 4.677 5.77469 4.677 7.4707C4.677 9.16672 6.07134 10.5469 7.78478 10.5469C9.49822 10.5469 10.8926 9.16672 10.8926 7.4707C10.8926 5.77469 9.49822 4.39453 7.78478 4.39453Z" fill="#FFC000"/>
</symbol><symbol id="icon-pin" viewBox="0 0 12 15">
<path d="M2.62758 8.15094C2.64588 8.10413 2.82895 7.38247 2.84178 7.3336C2.55596 6.89243 2.23845 5.44773 2.48199 4.27505C2.74472 2.55444 4.52223 1.7086 6.20046 1.7086V1.7054C8.30161 1.70677 9.8744 2.906 9.87608 4.97131C9.87742 6.58791 8.92803 8.72475 7.30692 8.72475C7.30648 8.72475 7.30614 8.72475 7.3057 8.72475C6.72714 8.72475 5.99462 8.45558 5.80252 8.19122C5.58084 7.88658 5.5264 7.51064 5.64354 7.10896C5.93059 6.16905 6.29662 5.04318 6.33935 4.29245C6.37895 3.58395 5.88886 3.12298 5.2533 3.12298C4.77503 3.12298 4.15386 3.40794 3.84427 4.20868C3.58857 4.87392 3.59404 5.57041 3.86101 6.33774C3.96509 6.63769 3.39959 8.59314 3.21841 9.22989C2.76826 10.8117 2.15199 12.813 2.28375 13.9276L2.41093 15L3.04973 14.1412C3.93374 12.9541 4.84777 9.88346 5.09131 9.13628C5.81133 10.0928 7.31072 10.1202 7.48553 10.1202C9.63276 10.1202 12.0676 7.93304 11.9985 4.88892C11.938 2.21935 10.0334 0 6.61123 0V0.00343324C3.35608 0.00343324 1.45618 1.78574 0.991082 4.0377C0.565139 6.12579 1.51241 7.71503 2.62758 8.15094Z" fill="#FFC000"/>
</symbol><symbol id="icon-tel1" viewBox="0 0 30 30">
<g clip-path="url(#clip0)">
<path d="M23.671 18.6076C23.4085 18.3074 23.0884 18.0631 22.7296 17.8891C22.3708 17.7152 21.9807 17.6151 21.5824 17.5949C20.7596 17.5949 20.0634 17.9114 19.3672 18.5443L17.4052 20.5696L16.8989 20.3165L16.266 20C13.4076 18.0917 11.0432 15.5321 9.36723 12.5316L10.8229 11.076L11.3925 10.5696C12.7217 9.24051 12.7217 7.53165 11.3925 6.20253L9.6204 4.43038L9.05078 3.86076L7.84824 2.65823C7.21533 2.08861 6.51913 1.70886 5.75964 1.70886C5.00014 1.70886 4.24065 2.08861 3.60774 2.65823H3.54445L1.39255 4.87342C0.616806 5.65455 0.145471 6.68699 0.0634335 7.78481C-0.12644 9.62026 0.44318 11.3924 0.886218 12.4684C3.64758 19.4028 8.90989 25.0491 15.6331 28.2911C17.4805 29.2564 19.5043 29.8377 21.5824 30C23.0381 30 24.3039 29.4937 25.2533 28.4177C25.5698 27.9747 25.9495 27.6582 26.3925 27.2152L27.2153 26.4557C27.8482 25.7595 28.1647 25 28.1647 24.2405C28.1647 23.481 27.785 22.7215 27.152 22.0886L23.671 18.6076ZM25.9495 25.2532L25.19 26.0127L23.9875 27.2785C23.687 27.6154 23.3153 27.881 22.8992 28.0562C22.4832 28.2314 22.0334 28.3116 21.5824 28.2911H21.3293C19.4305 28.1646 17.6584 27.4051 16.3925 26.7722C10.0541 23.7307 5.08591 18.4238 2.4685 11.8987C1.89888 10.3165 1.64571 9.11393 1.77229 7.91139C1.83559 7.21519 2.08875 6.58228 2.65837 6.07595L4.81027 3.92405C5.12672 3.6076 5.44318 3.41772 5.75964 3.41772C6.13938 3.41772 6.45584 3.67089 6.64571 3.86076L6.709 3.92405L7.84824 5.06329L8.41786 5.63291L10.19 7.40507C10.8229 8.03798 10.8229 8.67089 10.19 9.36709L9.6204 9.87342L8.03812 11.4557H7.97483C7.4685 12.0253 7.53179 12.5316 7.65837 12.9114V12.9747C8.1647 14.0506 8.79761 15.0633 9.74698 16.2658V16.3291C11.6807 18.7154 14.0686 20.6946 16.7723 22.1519L16.8356 22.2152C17.0255 22.3418 17.2786 22.4051 17.4685 22.4051C17.9748 22.4051 18.2913 22.0253 18.4179 21.962L20.5698 19.7468C20.8229 19.557 21.1394 19.3038 21.5191 19.3038C21.9622 19.3038 22.2786 19.557 22.4685 19.7468L25.9495 23.2911C26.5824 23.9241 26.5824 24.557 25.9495 25.2532ZM16.2027 7.1519C17.8482 7.40507 19.3672 8.22785 20.5698 9.43038C21.7723 10.6329 22.5318 12.0886 22.8482 13.7975C22.9115 14.1772 23.2913 14.4937 23.671 14.4937H23.7976C24.3039 14.3671 24.6204 13.9241 24.5571 13.481C24.2265 11.4688 23.2732 9.61087 21.8312 8.16892C20.3893 6.72697 18.5314 5.7736 16.5191 5.44304C16.0128 5.37975 15.5698 5.6962 15.5065 6.13924C15.4432 6.58228 15.7596 7.08861 16.2027 7.1519Z" fill="#FFC000"/>
<path d="M29.9367 13.2279C29.3876 9.91851 27.817 6.86382 25.445 4.49175C23.0729 2.11969 20.0182 0.5491 16.7088 2.12947e-05C16.4822 -0.0335504 16.2516 0.024273 16.0676 0.160771C15.8836 0.297269 15.7614 0.50126 15.7278 0.72787C15.6943 0.954479 15.7521 1.18514 15.8886 1.36912C16.0251 1.55309 16.2291 1.67531 16.4557 1.70888C19.4088 2.19401 22.1367 3.58921 24.2585 5.69969C26.3804 7.81016 27.7902 10.5306 28.2911 13.481C28.3544 13.9241 28.6709 14.2405 29.1139 14.2405L29.2405 14.1772C29.7468 14.1139 30.0633 13.6709 29.9367 13.2279Z" fill="#FFC000"/>
</g>

</symbol><symbol id="icon-tel2" viewBox="0 0 30 30">
<g clip-path="url(#clip0)">
<path d="M23.671 18.6076C23.4085 18.3074 23.0884 18.0631 22.7296 17.8891C22.3708 17.7152 21.9807 17.6151 21.5824 17.5949C20.7596 17.5949 20.0634 17.9114 19.3672 18.5443L17.4052 20.5696L16.8989 20.3165L16.266 20C13.4076 18.0917 11.0432 15.5321 9.36723 12.5316L10.8229 11.076L11.3925 10.5696C12.7217 9.24051 12.7217 7.53165 11.3925 6.20253L9.6204 4.43038L9.05078 3.86076L7.84824 2.65823C7.21533 2.08861 6.51913 1.70886 5.75964 1.70886C5.00014 1.70886 4.24065 2.08861 3.60774 2.65823H3.54445L1.39255 4.87342C0.616806 5.65455 0.145471 6.68699 0.0634335 7.78481C-0.12644 9.62026 0.44318 11.3924 0.886218 12.4684C3.64758 19.4028 8.90989 25.0491 15.6331 28.2911C17.4805 29.2564 19.5043 29.8377 21.5824 30C23.0381 30 24.3039 29.4937 25.2533 28.4177C25.5698 27.9747 25.9495 27.6582 26.3925 27.2152L27.2153 26.4557C27.8482 25.7595 28.1647 25 28.1647 24.2405C28.1647 23.481 27.785 22.7215 27.152 22.0886L23.671 18.6076ZM25.9495 25.2532L25.19 26.0127L23.9875 27.2785C23.687 27.6154 23.3153 27.881 22.8992 28.0562C22.4832 28.2314 22.0334 28.3116 21.5824 28.2911H21.3293C19.4305 28.1646 17.6584 27.4051 16.3925 26.7722C10.0541 23.7307 5.08591 18.4238 2.4685 11.8987C1.89888 10.3165 1.64571 9.11393 1.77229 7.91139C1.83559 7.21519 2.08875 6.58228 2.65837 6.07595L4.81027 3.92405C5.12672 3.6076 5.44318 3.41772 5.75964 3.41772C6.13938 3.41772 6.45584 3.67089 6.64571 3.86076L6.709 3.92405L7.84824 5.06329L8.41786 5.63291L10.19 7.40507C10.8229 8.03798 10.8229 8.67089 10.19 9.36709L9.6204 9.87342L8.03812 11.4557H7.97483C7.4685 12.0253 7.53179 12.5316 7.65837 12.9114V12.9747C8.1647 14.0506 8.79761 15.0633 9.74698 16.2658V16.3291C11.6807 18.7154 14.0686 20.6946 16.7723 22.1519L16.8356 22.2152C17.0255 22.3418 17.2786 22.4051 17.4685 22.4051C17.9748 22.4051 18.2913 22.0253 18.4179 21.962L20.5698 19.7468C20.8229 19.557 21.1394 19.3038 21.5191 19.3038C21.9622 19.3038 22.2786 19.557 22.4685 19.7468L25.9495 23.2911C26.5824 23.9241 26.5824 24.557 25.9495 25.2532ZM16.2027 7.1519C17.8482 7.40507 19.3672 8.22785 20.5698 9.43038C21.7723 10.6329 22.5318 12.0886 22.8482 13.7975C22.9115 14.1772 23.2913 14.4937 23.671 14.4937H23.7976C24.3039 14.3671 24.6204 13.9241 24.5571 13.481C24.2265 11.4688 23.2732 9.61087 21.8312 8.16892C20.3893 6.72697 18.5314 5.7736 16.5191 5.44304C16.0128 5.37975 15.5698 5.6962 15.5065 6.13924C15.4432 6.58228 15.7596 7.08861 16.2027 7.1519Z" fill="#E3AB00"/>
<path d="M29.9367 13.2279C29.3876 9.91851 27.817 6.86382 25.445 4.49175C23.0729 2.11969 20.0182 0.5491 16.7088 2.12947e-05C16.4822 -0.0335504 16.2516 0.024273 16.0676 0.160771C15.8836 0.297269 15.7614 0.50126 15.7278 0.72787C15.6943 0.954479 15.7521 1.18514 15.8886 1.36912C16.0251 1.55309 16.2291 1.67531 16.4557 1.70888C19.4088 2.19401 22.1367 3.58921 24.2585 5.69969C26.3804 7.81016 27.7902 10.5306 28.2911 13.481C28.3544 13.9241 28.6709 14.2405 29.1139 14.2405L29.2405 14.1772C29.7468 14.1139 30.0633 13.6709 29.9367 13.2279Z" fill="#FFC000"/>
</g>

</symbol><symbol id="icon-tg" viewBox="0 0 18 15">
<path d="M4.5811 8.69128L6.71719 13.9975L9.49809 11.2341L14.2661 15L17.6233 0L0.448608 7.10885L4.5811 8.69128ZM12.7156 4.30365L7.4587 9.06836L6.80393 11.5206L5.59438 8.5151L12.7156 4.30365Z" fill="#FFC000"/>
</symbol><symbol id="icon-tw" viewBox="0 0 19 15">
<path d="M7.49305 15C6.70669 15 5.89725 14.9359 5.08319 14.8074C3.649 14.5805 2.19704 13.8245 1.78646 13.5979L0.708862 13.0047L1.87526 12.6181C3.15033 12.1957 3.92639 11.9333 4.88642 11.5228C3.92497 11.0538 3.18407 10.209 2.82712 9.11796L2.55577 8.28749L2.77846 8.32185C2.58917 8.12934 2.41939 7.91829 2.27163 7.69184C1.81239 6.9888 1.56909 6.12933 1.62095 5.393L1.67174 4.66849L2.10221 4.83673C1.92008 4.49038 1.78872 4.11925 1.71223 3.73492C1.52434 2.79133 1.68169 1.78868 2.15549 0.912027L2.53055 0.218295L3.0317 0.8254C4.61791 2.74587 6.62713 3.88526 9.01142 4.21888C8.9141 3.54198 8.98727 2.88905 9.22879 2.30379C9.50973 1.62222 10.0102 1.04411 10.6751 0.6321C11.4138 0.17534 12.3089 -0.046597 13.1968 0.00817128C14.138 0.0665192 14.9933 0.421976 15.6724 1.03731C16.0037 0.950329 16.2481 0.857616 16.5781 0.732329C16.777 0.657157 17.0025 0.571246 17.2841 0.473523L18.323 0.112696L17.6457 2.06288C17.6905 2.0593 17.7363 2.05572 17.7846 2.05357L18.8938 2.00345L18.2381 2.90624C18.2005 2.95814 18.1909 2.97282 18.1778 2.99286C18.1248 3.0734 18.0591 3.17292 17.1591 4.38426C16.9339 4.68746 16.8214 5.08229 16.8423 5.49681C16.9219 7.07077 16.7304 8.49475 16.2726 9.729C15.8393 10.897 15.168 11.899 14.2776 12.7072C13.1758 13.7074 11.7708 14.3922 10.1015 14.7423C9.28242 14.9141 8.40336 15 7.49305 15Z" fill="#FFC000"/>
</symbol></svg>