<svg width="30" height="30" viewBox="0 0 30 30" fill="none" xmlns="http://www.w3.org/2000/svg">
<g clip-path="url(#clip0)">
<path d="M23.671 18.6076C23.4085 18.3074 23.0884 18.0631 22.7296 17.8891C22.3708 17.7152 21.9807 17.6151 21.5824 17.5949C20.7596 17.5949 20.0634 17.9114 19.3672 18.5443L17.4052 20.5696L16.8989 20.3165L16.266 20C13.4076 18.0917 11.0432 15.5321 9.36723 12.5316L10.8229 11.076L11.3925 10.5696C12.7217 9.24051 12.7217 7.53165 11.3925 6.20253L9.6204 4.43038L9.05078 3.86076L7.84824 2.65823C7.21533 2.08861 6.51913 1.70886 5.75964 1.70886C5.00014 1.70886 4.24065 2.08861 3.60774 2.65823H3.54445L1.39255 4.87342C0.616806 5.65455 0.145471 6.68699 0.0634335 7.78481C-0.12644 9.62026 0.44318 11.3924 0.886218 12.4684C3.64758 19.4028 8.90989 25.0491 15.6331 28.2911C17.4805 29.2564 19.5043 29.8377 21.5824 30C23.0381 30 24.3039 29.4937 25.2533 28.4177C25.5698 27.9747 25.9495 27.6582 26.3925 27.2152L27.2153 26.4557C27.8482 25.7595 28.1647 25 28.1647 24.2405C28.1647 23.481 27.785 22.7215 27.152 22.0886L23.671 18.6076ZM25.9495 25.2532L25.19 26.0127L23.9875 27.2785C23.687 27.6154 23.3153 27.881 22.8992 28.0562C22.4832 28.2314 22.0334 28.3116 21.5824 28.2911H21.3293C19.4305 28.1646 17.6584 27.4051 16.3925 26.7722C10.0541 23.7307 5.08591 18.4238 2.4685 11.8987C1.89888 10.3165 1.64571 9.11393 1.77229 7.91139C1.83559 7.21519 2.08875 6.58228 2.65837 6.07595L4.81027 3.92405C5.12672 3.6076 5.44318 3.41772 5.75964 3.41772C6.13938 3.41772 6.45584 3.67089 6.64571 3.86076L6.709 3.92405L7.84824 5.06329L8.41786 5.63291L10.19 7.40507C10.8229 8.03798 10.8229 8.67089 10.19 9.36709L9.6204 9.87342L8.03812 11.4557H7.97483C7.4685 12.0253 7.53179 12.5316 7.65837 12.9114V12.9747C8.1647 14.0506 8.79761 15.0633 9.74698 16.2658V16.3291C11.6807 18.7154 14.0686 20.6946 16.7723 22.1519L16.8356 22.2152C17.0255 22.3418 17.2786 22.4051 17.4685 22.4051C17.9748 22.4051 18.2913 22.0253 18.4179 21.962L20.5698 19.7468C20.8229 19.557 21.1394 19.3038 21.5191 19.3038C21.9622 19.3038 22.2786 19.557 22.4685 19.7468L25.9495 23.2911C26.5824 23.9241 26.5824 24.557 25.9495 25.2532ZM16.2027 7.1519C17.8482 7.40507 19.3672 8.22785 20.5698 9.43038C21.7723 10.6329 22.5318 12.0886 22.8482 13.7975C22.9115 14.1772 23.2913 14.4937 23.671 14.4937H23.7976C24.3039 14.3671 24.6204 13.9241 24.5571 13.481C24.2265 11.4688 23.2732 9.61087 21.8312 8.16892C20.3893 6.72697 18.5314 5.7736 16.5191 5.44304C16.0128 5.37975 15.5698 5.6962 15.5065 6.13924C15.4432 6.58228 15.7596 7.08861 16.2027 7.1519Z" fill="#FFC000"/>
<path d="M29.9367 13.2279C29.3876 9.91851 27.817 6.86382 25.445 4.49175C23.0729 2.11969 20.0182 0.5491 16.7088 2.12947e-05C16.4822 -0.0335504 16.2516 0.024273 16.0676 0.160771C15.8836 0.297269 15.7614 0.50126 15.7278 0.72787C15.6943 0.954479 15.7521 1.18514 15.8886 1.36912C16.0251 1.55309 16.2291 1.67531 16.4557 1.70888C19.4088 2.19401 22.1367 3.58921 24.2585 5.69969C26.3804 7.81016 27.7902 10.5306 28.2911 13.481C28.3544 13.9241 28.6709 14.2405 29.1139 14.2405L29.2405 14.1772C29.7468 14.1139 30.0633 13.6709 29.9367 13.2279Z" fill="#FFC000"/>
</g>
<defs>
<clipPath id="clip0">
<rect width="30" height="30" fill="white"/>
</clipPath>
</defs>
</svg>
