<svg width="30" height="30" viewBox="0 0 30 30" fill="none" xmlns="http://www.w3.org/2000/svg">
<path d="M30 15C30 11.0218 28.4196 7.20644 25.6066 4.3934C22.7936 1.58035 18.9782 0 15 0C11.0218 0 7.20644 1.58035 4.3934 4.3934C1.58035 7.20644 0 11.0218 0 15C0 18.9782 1.58035 22.7936 4.3934 25.6066C7.20644 28.4196 11.0218 30 15 30C18.9782 30 22.7936 28.4196 25.6066 25.6066C28.4196 22.7936 30 18.9782 30 15V15ZM1 15C1 13.1615 1.36212 11.341 2.06569 9.64243C2.76925 7.94387 3.80049 6.40053 5.10051 5.1005C6.40053 3.80048 7.94387 2.76925 9.64243 2.06569C11.341 1.36212 13.1615 1 15 1C16.8385 1 18.659 1.36212 20.3576 2.06569C22.0561 2.76925 23.5995 3.80048 24.8995 5.1005C26.1995 6.40053 27.2307 7.94387 27.9343 9.64243C28.6379 11.341 29 13.1615 29 15C29 18.713 27.525 22.274 24.8995 24.8995C22.274 27.525 18.713 29 15 29C11.287 29 7.72602 27.525 5.10051 24.8995C2.475 22.274 1 18.713 1 15Z" fill="black" fill-opacity="0.2"/>
<path d="M15.2788 19.5953L21.8826 12.9916C22.0294 12.8155 22.0294 12.5807 21.8826 12.4339C21.7359 12.2872 21.4717 12.2578 21.325 12.4339L14.9853 18.7442L8.67508 12.4339C8.52833 12.2578 8.26418 12.2578 8.11743 12.4339C8.02938 12.4926 8.00003 12.61 8.00003 12.6981C8.00003 12.7861 8.02938 12.9035 8.11743 12.9916L14.7212 19.5953C14.8679 19.7421 15.1321 19.7421 15.2788 19.5953Z" fill="black" fill-opacity="0.2"/>
<path d="M21.918 13.0269L21.9181 13.0271L21.921 13.0236C22.0816 12.8308 22.0858 12.5664 21.918 12.3986C21.7568 12.2374 21.4589 12.1975 21.2881 12.4001L14.9854 18.6735L8.71199 12.4001C8.54647 12.2036 8.2507 12.2024 8.08359 12.3965C7.97969 12.4701 7.95003 12.6056 7.95003 12.6981C7.95003 12.7956 7.98227 12.9271 8.08208 13.0269L14.6858 19.6307C14.8521 19.7969 15.1479 19.7969 15.3142 19.6307L21.918 13.0269Z" stroke="black" stroke-opacity="0.2" stroke-width="0.1"/>
</svg>
