<svg width="19" height="15" viewBox="0 0 19 15" fill="none" xmlns="http://www.w3.org/2000/svg">
<path d="M7.49305 15C6.70669 15 5.89725 14.9359 5.08319 14.8074C3.649 14.5805 2.19704 13.8245 1.78646 13.5979L0.708862 13.0047L1.87526 12.6181C3.15033 12.1957 3.92639 11.9333 4.88642 11.5228C3.92497 11.0538 3.18407 10.209 2.82712 9.11796L2.55577 8.28749L2.77846 8.32185C2.58917 8.12934 2.41939 7.91829 2.27163 7.69184C1.81239 6.9888 1.56909 6.12933 1.62095 5.393L1.67174 4.66849L2.10221 4.83673C1.92008 4.49038 1.78872 4.11925 1.71223 3.73492C1.52434 2.79133 1.68169 1.78868 2.15549 0.912027L2.53055 0.218295L3.0317 0.8254C4.61791 2.74587 6.62713 3.88526 9.01142 4.21888C8.9141 3.54198 8.98727 2.88905 9.22879 2.30379C9.50973 1.62222 10.0102 1.04411 10.6751 0.6321C11.4138 0.17534 12.3089 -0.046597 13.1968 0.00817128C14.138 0.0665192 14.9933 0.421976 15.6724 1.03731C16.0037 0.950329 16.2481 0.857616 16.5781 0.732329C16.777 0.657157 17.0025 0.571246 17.2841 0.473523L18.323 0.112696L17.6457 2.06288C17.6905 2.0593 17.7363 2.05572 17.7846 2.05357L18.8938 2.00345L18.2381 2.90624C18.2005 2.95814 18.1909 2.97282 18.1778 2.99286C18.1248 3.0734 18.0591 3.17292 17.1591 4.38426C16.9339 4.68746 16.8214 5.08229 16.8423 5.49681C16.9219 7.07077 16.7304 8.49475 16.2726 9.729C15.8393 10.897 15.168 11.899 14.2776 12.7072C13.1758 13.7074 11.7708 14.3922 10.1015 14.7423C9.28242 14.9141 8.40336 15 7.49305 15Z" fill="#FFC000"/>
</svg>
