<svg width="12" height="15" viewBox="0 0 12 15" fill="none" xmlns="http://www.w3.org/2000/svg">
<path d="M2.62758 8.15094C2.64588 8.10413 2.82895 7.38247 2.84178 7.3336C2.55596 6.89243 2.23845 5.44773 2.48199 4.27505C2.74472 2.55444 4.52223 1.7086 6.20046 1.7086V1.7054C8.30161 1.70677 9.8744 2.906 9.87608 4.97131C9.87742 6.58791 8.92803 8.72475 7.30692 8.72475C7.30648 8.72475 7.30614 8.72475 7.3057 8.72475C6.72714 8.72475 5.99462 8.45558 5.80252 8.19122C5.58084 7.88658 5.5264 7.51064 5.64354 7.10896C5.93059 6.16905 6.29662 5.04318 6.33935 4.29245C6.37895 3.58395 5.88886 3.12298 5.2533 3.12298C4.77503 3.12298 4.15386 3.40794 3.84427 4.20868C3.58857 4.87392 3.59404 5.57041 3.86101 6.33774C3.96509 6.63769 3.39959 8.59314 3.21841 9.22989C2.76826 10.8117 2.15199 12.813 2.28375 13.9276L2.41093 15L3.04973 14.1412C3.93374 12.9541 4.84777 9.88346 5.09131 9.13628C5.81133 10.0928 7.31072 10.1202 7.48553 10.1202C9.63276 10.1202 12.0676 7.93304 11.9985 4.88892C11.938 2.21935 10.0334 0 6.61123 0V0.00343324C3.35608 0.00343324 1.45618 1.78574 0.991082 4.0377C0.565139 6.12579 1.51241 7.71503 2.62758 8.15094Z" fill="#FFC000"/>
</svg>
